<?xml version="1.0" encoding="UTF-8"?>
<svg id="Calque_2" xmlns="http://www.w3.org/2000/svg" viewBox="0 0 591.78 591.78">
  <defs>
    <style>
      .cls-1 {
        fill: #2c1929;
      }

      .cls-2 {
        fill: #f1ba55;
      }
    </style>
  </defs>
  <g id="Calque_3">
    <path class="cls-1" d="M591.78,295.89c0-25.55-61.57-47.8-152.53-59.38,56.13-72.5,83.93-131.77,65.86-149.84-18.07-18.07-77.34,9.73-149.84,65.86C343.69,61.57,321.44,0,295.89,0s-47.8,61.57-59.38,152.53c-72.5-56.13-131.77-83.93-149.84-65.86-18.07,18.07,9.73,77.34,65.86,149.84C61.57,248.09,0,270.34,0,295.89s61.57,47.8,152.53,59.38c-56.13,72.5-83.93,131.77-65.86,149.84,18.07,18.07,77.34-9.73,149.84-65.86,11.58,90.96,33.83,152.53,59.38,152.53s47.8-61.57,59.38-152.53c72.5,56.13,131.77,83.93,149.84,65.86,18.07-18.07-9.73-77.34-65.86-149.84,90.96-11.58,152.53-33.83,152.53-59.38Z"/>
    <circle class="cls-2" cx="295.89" cy="291.78" r="74.16"/>
  </g>
</svg>