<?xml version="1.0" encoding="UTF-8"?>
<svg id="Calque_2" xmlns="http://www.w3.org/2000/svg" viewBox="0 0 590.68 590.67">
  <defs>
    <style>
      .cls-1 {
        fill: #013539;
      }

      .cls-2 {
        fill: #f1ba55;
      }
    </style>
  </defs>
  <g id="Calque_3">
    <path class="cls-1" d="M479.85,479.65c147.32,0,147.32-184.41,0-184.41,147.83-.17,147.77-184.41-.2-184.41,0-146.8-183.1-147.31-184.42-1.59-1.49-146.24-184.41-145.65-184.41,1.79-147.32,0-147.33,184.41,0,184.42-147.83.17-147.77,184.41.2,184.41,0,146.8,183.09,147.32,184.41,1.59,1.49,146.24,184.41,145.64,184.41-1.8ZM295.24,295.44v-.2s.2,0,.2,0v.2s-.2,0-.2,0Z"/>
    <path class="cls-2" d="M384.62,295.44c-62.34,17.22-76.3,31.17-93.51,93.51-17.22-62.34-31.17-76.3-93.51-93.51,62.34-17.22,76.3-31.17,93.51-93.51,17.22,62.34,31.17,76.3,93.51,93.51Z"/>
  </g>
</svg>