<?xml version="1.0" encoding="UTF-8"?>
<svg id="Calque_2" xmlns="http://www.w3.org/2000/svg" viewBox="0 0 574.33 464.84">
  <defs>
    <style>
      .cls-1 {
        fill: #013539;
      }

      .cls-2 {
        fill: #c6abc1;
      }
    </style>
  </defs>
  <g id="Calque_3">
    <g>
      <polygon class="cls-2" points="551.01 0 551.01 198.16 352.85 198.16 551.01 0"/>
      <polygon class="cls-2" points="17.01 0 17.01 198.16 215.17 198.16 17.01 0"/>
      <polygon class="cls-2" points="91.39 192.63 284.01 0 476.64 192.63 91.39 192.63"/>
      <path class="cls-2" d="M17.01,180.78h534c0,153.42-119.55,277.8-267.02,277.8S17.01,334.2,17.01,180.78Z"/>
    </g>
    <path class="cls-1" d="M574.33,174.52s.28,130.26-79.89,210.43c-80.17,80.17-210.43,79.89-210.43,79.89,0,0-.28-130.26,79.89-210.43,80.17-80.17,210.43-79.89,210.43-79.89Z"/>
    <path class="cls-1" d="M0,174.52s-.28,130.26,79.89,210.43,210.43,79.89,210.43,79.89c0,0,.28-130.26-79.89-210.43S0,174.52,0,174.52Z"/>
  </g>
</svg>