<?xml version="1.0" encoding="UTF-8"?>
<svg id="Calque_2" xmlns="http://www.w3.org/2000/svg" viewBox="0 0 629.47 628.79">
  <defs>
    <style>
      .cls-1 {
        fill: #c6abc1;
      }

      .cls-2 {
        fill: #ee7056;
      }
    </style>
  </defs>
  <g id="Calque_3">
    <path class="cls-1" d="M328.34,8.59l33.25,69.87c4.09,8.6,15.04,11.29,22.65,5.58l61.65-46.28c10.14-7.61,24.56-.07,24.1,12.6l-2.83,77.67c-.35,9.49,8.06,16.93,17.44,15.43l76.13-12.17c12.48-1.99,21.72,11.34,15.48,22.33l-38.47,67.64c-4.68,8.22-.71,18.67,8.25,21.71l73.27,24.92c11.95,4.06,13.9,20.13,3.29,26.95l-65.29,41.9c-7.95,5.1-9.3,16.18-2.8,23.04l53.45,56.43c8.68,9.17,2.92,24.31-9.66,25.38l-76.94,6.54c-9.44.8-15.81,10.01-13.22,19.13l21.24,74.85c3.46,12.18-8.73,22.93-20.38,17.98l-70.92-30.11c-8.75-3.72-18.72,1.51-20.64,10.82l-15.69,75.96c-2.57,12.42-18.4,16.31-26.42,6.49l-48.85-59.79c-6.03-7.38-17.31-7.38-23.34,0l-48.85,59.79c-8.03,9.82-23.86,5.94-26.42-6.49l-15.69-75.96c-1.92-9.31-11.89-14.54-20.64-10.82l-70.92,30.11c-11.65,4.95-23.84-5.81-20.38-17.98l21.24-74.85c2.59-9.11-3.78-18.33-13.22-19.13l-76.94-6.54c-12.58-1.07-18.35-16.21-9.66-25.38l53.45-56.43c6.5-6.86,5.15-17.94-2.8-23.04L6.93,294.84c-10.62-6.81-8.66-22.88,3.29-26.95l73.27-24.92c8.95-3.05,12.92-13.49,8.25-21.71l-38.47-67.64c-6.25-10.99,2.99-24.32,15.48-22.33l76.13,12.17c9.37,1.5,17.78-5.94,17.44-15.43l-2.83-77.67c-.46-12.67,13.97-20.21,24.1-12.6l61.65,46.28c7.62,5.72,18.56,3.02,22.65-5.58l33.25-69.87c5.45-11.46,21.76-11.46,27.21,0Z"/>
    <circle class="cls-2" cx="240.58" cy="392.96" r="74.16"/>
    <circle class="cls-2" cx="388.89" cy="244.64" r="74.16"/>
  </g>
</svg>