<?xml version="1.0" encoding="UTF-8"?>
<svg id="Calque_2" xmlns="http://www.w3.org/2000/svg" viewBox="0 0 587.77 589.02">
  <defs>
    <style>
      .cls-1 {
        fill: #ee7055;
      }

      .cls-2 {
        fill: #f1ba55;
      }
    </style>
  </defs>
  <g id="Calque_3">
    <path class="cls-2" d="M293.88,183.6c0-291.81-251.35-198.91-60.89,22.5-190.47-221.42-324.21,13.8-32.4,56.98-291.81-43.18-245.36,224.31,11.25,64.79-256.61,159.51-51.71,334.1,49.64,42.29-101.34,291.81,166.14,291.81,64.79,0,101.34,291.81,306.25,117.22,49.64-42.29,256.61,159.51,303.06-107.97,11.25-64.79,291.81-43.18,158.07-278.4-32.4-56.98,190.47-221.42-60.89-314.31-60.89-22.5Z"/>
    <path class="cls-1" d="M391.16,231.07c-43.74,20.6-72.06-7.72-51.46-51.46-34.52,29.81-57.1,29.81-91.63,0,20.6,43.74-7.72,72.06-51.46,51.46,29.81,34.52,29.81,57.1,0,91.63,43.74-20.6,72.06,7.72,51.46,51.46,34.52-29.81,57.1-29.81,91.63,0-20.6-43.74,7.72-72.06,51.46-51.46-29.81-34.52-29.81-57.1,0-91.63Z"/>
  </g>
</svg>