<?xml version="1.0" encoding="UTF-8"?>
<svg id="Calque_2" xmlns="http://www.w3.org/2000/svg" viewBox="0 0 284.49 287.17">
  <defs>
    <style>
      .cls-1 {
        fill: #d8514c;
      }

      .cls-2 {
        fill: #240e22;
      }

      .cls-3 {
        fill: #c6abc1;
      }

      .cls-4 {
        fill: #ee7056;
      }

      .cls-5 {
        fill: #f1ba55;
      }

      .cls-6 {
        fill: #fbedcf;
      }

      .cls-7 {
        fill: #16585c;
      }
    </style>
  </defs>
  <g id="Calque_6">
    <g>
      <path class="cls-4" d="M92.23,43.46C91.79,19.39,71.33,0,46.13,0S.46,19.39.02,43.46H0v124.1h92.25V43.46h-.02Z"/>
      <path class="cls-5" d="M284.49,144.91v135.31c0,3.84-3.11,6.95-6.95,6.95H6.95C3.11,287.17,0,284.05,0,280.22v-133.57C0,65.4,67.24-.68,148.42,2.78c75.69,3.23,136.08,65.62,136.08,142.13Z"/>
      <path class="cls-7" d="M236.56,149.08c-2.84-51.63-43.97-92.59-94.31-92.59s-91.48,40.96-94.32,92.59h-.16v138.09h188.96v-138.09h-.16Z"/>
      <path class="cls-3" d="M184.75,163.07c-.4-24.07-19.27-43.46-42.5-43.46s-42.1,19.39-42.5,43.46h-.02v124.1h85.04v-124.1h-.02Z"/>
    </g>
    <g>
      <path class="cls-2" d="M157.46,158.19c-6.83-.21-12.42-4.48-12.42-9.95v-16.94c0-5.47,5.59-9.95,12.42-9.95h97.27c6.83,0,9.86,0,6.78,4.52-13.04,18.63-73.25,33.28-104.05,32.32Z"/>
      <path class="cls-2" d="M266.97,186.52H118.35l11.08-20.42h31.79c11.36,0,20.65-8.56,20.65-19.01v-13.29c0-.63-.04-1.26-.1-1.88.06-.82.1-1.65.1-2.48h0c0-20.16-17.92-36.66-39.82-36.66h-16.89c-15.92,0-29.73,8.72-36.09,21.23l-53.72,99.01c-6.03,7.47-9.6,16.71-9.6,26.67v2.57c0,24.7,21.96,44.92,48.79,44.92h109.8c19.78,0,36.9-10.99,44.54-26.66h5.7c15.64,0,28.32-11.67,28.32-26.07h0c0-4.94-4.39-8.97-9.75-8.97h-4.76c16.81,0,30.44-12.55,30.44-28.02h0c0-6.01-5.34-10.92-11.87-10.92Z"/>
      <ellipse class="cls-6" cx="149.05" cy="124.35" rx="12.84" ry="11.82"/>
      <ellipse class="cls-1" cx="149.05" cy="124.35" rx="8.35" ry="7.69"/>
      <g>
        <path class="cls-6" d="M137.95,198.22l.04.12c2.73,8.49,9.57,15.03,18.18,17.37l1.13.31-1.13.31c-8.61,2.34-15.45,8.88-18.18,17.37l-.04.12-.04-.12c-2.73-8.49-9.57-15.03-18.18-17.37l-1.13-.31,1.13-.31c8.61-2.34,15.45-8.88,18.18-17.37l.04-.12Z"/>
        <path class="cls-6" d="M137.95,198.22c-2.75,8.57-10.03,15.27-19.34,17.8h0c9.31,2.53,16.59,9.24,19.34,17.8v-35.61Z"/>
      </g>
      <g>
        <path class="cls-6" d="M150.88,246l.02.07c1.62,5.05,5.69,8.94,10.81,10.33l.67.18-.67.18c-5.12,1.39-9.19,5.28-10.81,10.33l-.02.07-.02-.07c-1.62-5.05-5.69-8.94-10.81-10.33l-.67-.18.67-.18c5.12-1.39,9.19-5.28,10.81-10.33l.02-.07Z"/>
        <path class="cls-6" d="M150.79,246.26c-1.7,4.97-5.97,8.85-11.41,10.33,5.44,1.48,9.71,5.36,11.41,10.33v-20.66Z"/>
      </g>
      <g>
        <path class="cls-6" d="M83.64,211.02l2.7,8.42c3.26,10.14,11.42,17.94,21.69,20.74l10.32,2.81-10.32,2.81c-10.27,2.8-18.43,10.6-21.69,20.74l-2.7,8.42-2.7-8.42c-3.26-10.14-11.42-17.94-21.69-20.74l-10.32-2.81,10.32-2.81c10.27-2.8,18.43-10.6,21.69-20.74l2.7-8.42Z"/>
        <path class="cls-6" d="M83.64,211.02l-3.51,10.93c-2.75,8.57-10.03,15.27-19.34,17.8l-11.87,3.23,11.87,3.23c9.31,2.53,16.59,9.24,19.34,17.8l3.51,10.93v-63.93Z"/>
      </g>
    </g>
  </g>
</svg>