<?xml version="1.0" encoding="UTF-8"?>
<svg id="Calque_2" xmlns="http://www.w3.org/2000/svg" viewBox="0 0 3851.61 743.19">
  <defs>
    <style>
      .cls-1 {
        fill: #013539;
      }

      .cls-2 {
        fill: #2c1929;
      }
    </style>
  </defs>
  <g id="Calque_3">
    <rect class="cls-2" x="3115.23" y="417.91" width="49.36" height="325.27"/>
    <path class="cls-1" d="M2974.36,442.38l154.67-154.67c6.01-6.01,15.76-6.01,21.77,0l154.67,154.67c9.7,9.7,2.83,26.28-10.88,26.28h-309.34c-13.71,0-20.58-16.58-10.88-26.28Z"/>
    <path class="cls-1" d="M2974.17,304.3l154.94-154.94c5.97-5.97,15.64-5.97,21.61,0l154.94,154.94c9.63,9.63,2.81,26.08-10.8,26.08h-309.89c-13.61,0-20.43-16.46-10.8-26.08Z"/>
    <rect class="cls-2" x="3600.85" y="332.69" width="62.29" height="410.5"/>
    <path class="cls-1" d="M3417.32,391.03l203.31-203.31c6.27-6.27,16.44-6.27,22.72,0l203.31,203.31c10.12,10.12,2.95,27.42-11.36,27.42h-406.63c-14.31,0-21.48-17.3-11.36-27.42Z"/>
    <path class="cls-1" d="M3417.08,216.77l203.66-203.66c6.22-6.22,16.3-6.22,22.51,0l203.66,203.66c10.03,10.03,2.93,27.18-11.26,27.18h-407.32c-14.18,0-21.29-17.15-11.26-27.18Z"/>
    <rect class="cls-2" x="205.92" y="314.61" width="65.04" height="428.57"/>
    <path class="cls-1" d="M4.52,432.74l223.09-223.09c5.98-5.98,15.69-5.98,21.67,0l223.09,223.09c9.65,9.65,2.82,26.16-10.84,26.16H15.35c-13.65,0-20.49-16.51-10.84-26.16Z"/>
    <path class="cls-1" d="M13.22,219.18L228.12,4.28c5.7-5.7,14.95-5.7,20.65,0l214.9,214.9c9.2,9.2,2.68,24.93-10.32,24.93H23.54c-13.01,0-19.52-15.73-10.32-24.93Z"/>
  </g>
</svg>