<?xml version="1.0" encoding="UTF-8"?>
<svg id="Calque_2" xmlns="http://www.w3.org/2000/svg" viewBox="0 0 3704.3 484.04">
  <defs>
    <style>
      .cls-1 {
        fill: #013539;
      }

      .cls-2 {
        fill: #2c1929;
      }
    </style>
  </defs>
  <g id="Calque_3">
    <rect class="cls-2" x="3172.25" y="248.56" width="35.73" height="235.48"/>
    <path class="cls-1" d="M3069.23,371.64l111.97-111.97c4.35-4.35,11.41-4.35,15.76,0l111.97,111.97c7.02,7.02,2.05,19.02-7.88,19.02h-223.94c-9.93,0-14.9-12-7.88-19.02Z"/>
    <path class="cls-1" d="M3069.09,271.67l112.17-112.17c4.32-4.32,11.32-4.32,15.64,0l112.17,112.17c6.97,6.97,2.03,18.88-7.82,18.88h-224.34c-9.85,0-14.79-11.91-7.82-18.88Z"/>
    <rect class="cls-2" x="3523.81" y="186.86" width="45.1" height="297.18"/>
    <path class="cls-1" d="M3389.91,334.46l147.19-147.19c4.54-4.54,11.9-4.54,16.45,0l147.19,147.19c7.33,7.33,2.14,19.85-8.22,19.85h-294.37c-10.36,0-15.55-12.53-8.22-19.85Z"/>
    <path class="cls-1" d="M3389.73,208.31l147.44-147.44c4.5-4.5,11.8-4.5,16.3,0l147.44,147.44c7.26,7.26,2.12,19.68-8.15,19.68h-294.87c-10.27,0-15.41-12.41-8.15-19.68Z"/>
    <rect class="cls-2" x="150.11" y="173.78" width="47.08" height="310.26"/>
    <path class="cls-1" d="M3.27,313.28l161.5-161.5c4.33-4.33,11.36-4.33,15.69,0l161.5,161.5c6.99,6.99,2.04,18.94-7.84,18.94H11.12c-9.88,0-14.83-11.95-7.84-18.94Z"/>
    <path class="cls-1" d="M9.57,158.67L165.14,3.1c4.13-4.13,10.82-4.13,14.95,0l155.57,155.57c6.66,6.66,1.94,18.04-7.47,18.04H17.04c-9.42,0-14.13-11.39-7.47-18.04Z"/>
  </g>
</svg>