<?xml version="1.0" encoding="UTF-8"?>
<svg id="Calque_2" xmlns="http://www.w3.org/2000/svg" viewBox="0 0 1580.94 28.59">
  <defs>
    <style>
      .cls-1 {
        fill: #c6abc1;
      }
    </style>
  </defs>
  <g id="Calque_3">
    <g>
      <path class="cls-1" d="M1493.11,28.59c0-15.79,19.66-28.59,43.91-28.59s43.92,12.8,43.92,28.59h-87.83Z"/>
      <path class="cls-1" d="M1405.28,28.59c0-15.79,19.66-28.59,43.91-28.59s43.92,12.8,43.92,28.59h-87.83Z"/>
      <path class="cls-1" d="M1317.45,28.59c0-15.79,19.66-28.59,43.91-28.59s43.92,12.8,43.92,28.59h-87.83Z"/>
      <path class="cls-1" d="M1229.62,28.59c0-15.79,19.66-28.59,43.91-28.59s43.92,12.8,43.92,28.59h-87.83Z"/>
      <path class="cls-1" d="M1141.79,28.59c0-15.79,19.66-28.59,43.91-28.59s43.92,12.8,43.92,28.59h-87.83Z"/>
      <path class="cls-1" d="M1053.96,28.59c0-15.79,19.66-28.59,43.91-28.59s43.92,12.8,43.92,28.59h-87.83Z"/>
      <path class="cls-1" d="M966.13,28.59c0-15.79,19.66-28.59,43.91-28.59s43.92,12.8,43.92,28.59h-87.83Z"/>
      <path class="cls-1" d="M878.3,28.59c0-15.79,19.66-28.59,43.91-28.59s43.92,12.8,43.92,28.59h-87.83Z"/>
      <path class="cls-1" d="M790.47,28.59c0-15.79,19.66-28.59,43.91-28.59s43.92,12.8,43.92,28.59h-87.83Z"/>
      <path class="cls-1" d="M702.64,28.59c0-15.79,19.66-28.59,43.91-28.59s43.92,12.8,43.92,28.59h-87.83Z"/>
      <path class="cls-1" d="M614.81,28.59c0-15.79,19.66-28.59,43.91-28.59s43.92,12.8,43.92,28.59h-87.83Z"/>
      <path class="cls-1" d="M526.98,28.59c0-15.79,19.66-28.59,43.92-28.59s43.91,12.8,43.91,28.59h-87.83Z"/>
      <path class="cls-1" d="M439.15,28.59c0-15.79,19.66-28.59,43.91-28.59s43.92,12.8,43.92,28.59h-87.83Z"/>
      <path class="cls-1" d="M351.32,28.59c0-15.79,19.66-28.59,43.92-28.59s43.91,12.8,43.91,28.59h-87.83Z"/>
      <path class="cls-1" d="M263.49,28.59c0-15.79,19.66-28.59,43.92-28.59s43.91,12.8,43.91,28.59h-87.83Z"/>
      <path class="cls-1" d="M175.66,28.59c0-15.79,19.66-28.59,43.92-28.59s43.91,12.8,43.91,28.59h-87.83Z"/>
      <path class="cls-1" d="M87.83,28.59c0-15.79,19.66-28.59,43.92-28.59s43.91,12.8,43.91,28.59h-87.83Z"/>
      <path class="cls-1" d="M0,28.59C0,12.8,19.66,0,43.92,0s43.91,12.8,43.91,28.59H0Z"/>
    </g>
  </g>
</svg>