<?xml version="1.0" encoding="UTF-8"?>
<svg id="Calque_2" xmlns="http://www.w3.org/2000/svg" viewBox="0 0 1580.94 28.59">
  <defs>
    <style>
      .cls-1 {
        fill: #c6abc1;
      }
    </style>
  </defs>
  <g id="Calque_3">
    <g>
      <path class="cls-1" d="M87.83,0c0,15.79-19.66,28.59-43.91,28.59S0,15.79,0,0h87.83Z"/>
      <path class="cls-1" d="M175.66,0c0,15.79-19.66,28.59-43.91,28.59S87.83,15.79,87.83,0h87.83Z"/>
      <path class="cls-1" d="M263.49,0c0,15.79-19.66,28.59-43.91,28.59S175.66,15.79,175.66,0h87.83Z"/>
      <path class="cls-1" d="M351.32,0c0,15.79-19.66,28.59-43.91,28.59s-43.92-12.8-43.92-28.59h87.83Z"/>
      <path class="cls-1" d="M439.15,0c0,15.79-19.66,28.59-43.91,28.59s-43.92-12.8-43.92-28.59h87.83Z"/>
      <path class="cls-1" d="M526.98,0c0,15.79-19.66,28.59-43.91,28.59s-43.92-12.8-43.92-28.59h87.83Z"/>
      <path class="cls-1" d="M614.81,0c0,15.79-19.66,28.59-43.91,28.59s-43.92-12.8-43.92-28.59h87.83Z"/>
      <path class="cls-1" d="M702.64,0c0,15.79-19.66,28.59-43.91,28.59s-43.92-12.8-43.92-28.59h87.83Z"/>
      <path class="cls-1" d="M790.47,0c0,15.79-19.66,28.59-43.91,28.59s-43.92-12.8-43.92-28.59h87.83Z"/>
      <path class="cls-1" d="M878.3,0c0,15.79-19.66,28.59-43.91,28.59s-43.92-12.8-43.92-28.59h87.83Z"/>
      <path class="cls-1" d="M966.13,0c0,15.79-19.66,28.59-43.91,28.59s-43.92-12.8-43.92-28.59h87.83Z"/>
      <path class="cls-1" d="M1053.96,0c0,15.79-19.66,28.59-43.92,28.59s-43.91-12.8-43.91-28.59h87.83Z"/>
      <path class="cls-1" d="M1141.79,0c0,15.79-19.66,28.59-43.91,28.59s-43.92-12.8-43.92-28.59h87.83Z"/>
      <path class="cls-1" d="M1229.62,0c0,15.79-19.66,28.59-43.92,28.59s-43.91-12.8-43.91-28.59h87.83Z"/>
      <path class="cls-1" d="M1317.45,0c0,15.79-19.66,28.59-43.92,28.59s-43.91-12.8-43.91-28.59h87.83Z"/>
      <path class="cls-1" d="M1405.28,0c0,15.79-19.66,28.59-43.92,28.59s-43.91-12.8-43.91-28.59h87.83Z"/>
      <path class="cls-1" d="M1493.11,0c0,15.79-19.66,28.59-43.92,28.59s-43.91-12.8-43.91-28.59h87.83Z"/>
      <path class="cls-1" d="M1580.94,0c0,15.79-19.66,28.59-43.92,28.59s-43.91-12.8-43.91-28.59h87.83Z"/>
    </g>
  </g>
</svg>