<?xml version="1.0" encoding="UTF-8"?>
<svg id="Calque_2" xmlns="http://www.w3.org/2000/svg" viewBox="0 0 238.63 238.22">
  <defs>
    <style>
      .cls-1 {
        fill: #c6abc1;
      }
    </style>
  </defs>
  <g id="Calque_6">
    <path class="cls-1" d="M132.92,8.59l1.21,2.55c4.09,8.6,15.04,11.29,22.65,5.58l2.2-1.65c10.14-7.61,24.56-.07,24.1,12.6l-.11,3.07c-.35,9.49,8.06,16.93,17.44,15.43l2.88-.46c12.48-1.99,21.72,11.34,15.48,22.33l-1.62,2.85c-4.68,8.22-.71,18.67,8.25,21.71l3.01,1.02c11.95,4.06,13.9,20.13,3.29,26.95l-2.76,1.77c-7.95,5.1-9.3,16.18-2.8,23.04l2.28,2.4c8.68,9.17,2.92,24.31-9.66,25.38l-3.04.26c-9.44.8-15.81,10.01-13.22,19.13l.87,3.07c3.46,12.18-8.73,22.93-20.38,17.98l-2.59-1.1c-8.75-3.72-18.72,1.51-20.64,10.82l-.59,2.87c-2.57,12.42-18.4,16.31-26.42,6.49l-1.74-2.13c-6.03-7.38-17.31-7.38-23.34,0l-1.74,2.13c-8.03,9.82-23.86,5.94-26.42-6.49l-.59-2.87c-1.92-9.31-11.89-14.54-20.64-10.82l-2.59,1.1c-11.65,4.95-23.84-5.81-20.38-17.98l.87-3.07c2.59-9.11-3.78-18.33-13.22-19.13l-3.04-.26c-12.58-1.07-18.35-16.21-9.66-25.38l2.28-2.4c6.5-6.86,5.15-17.94-2.8-23.04l-2.76-1.77c-10.62-6.81-8.66-22.88,3.29-26.95l3.01-1.02c8.95-3.05,12.92-13.49,8.25-21.71l-1.62-2.85c-6.25-10.99,2.99-24.32,15.48-22.33l2.88.46c9.37,1.5,17.78-5.94,17.44-15.43l-.11-3.07c-.46-12.67,13.97-20.21,24.1-12.6l2.2,1.65c7.62,5.72,18.56,3.02,22.65-5.58l1.21-2.55c5.45-11.46,21.76-11.46,27.21,0Z"/>
  </g>
</svg>